<svg height="2270" width="720" xmlns="http://www.w3.org/2000/svg">
<rect height="2270" fill="#555" width="720"></rect>
<text fill="#7f7" font-family="Courier New" font-size="12" xml:space="preserve">
<tspan x="10" y="26"></tspan>
<tspan x="10" y="42">&gt; npmdoc-mssql@0.0.1 test /home/travis/build/npmdoc/node-npmdoc-mssql</tspan>
<tspan x="10" y="58">&gt; (set -e; export PORT=$(utility2 shServerPortRandom); utility2 test test.js)</tspan>
<tspan x="10" y="74"></tspan>
<tspan x="10" y="90"></tspan>
<tspan x="10" y="106">[MODE_BUILD=npmTest] - 2017-03-21T15:46:37Z - npm-testing /home/travis/build/npmdoc/node-npmdoc-\</tspan>
<tspan x="10" y="122">mssql</tspan>
<tspan x="10" y="138"></tspan>
<tspan x="10" y="154"></tspan>
<tspan x="10" y="170">covering $ /home/travis/.nvm/versions/node/v7.7.3/bin/node /home/travis/build/npmdoc/node-npmdoc\</tspan>
<tspan x="10" y="186">-mssql/test.js</tspan>
<tspan x="10" y="202">merging file:///home/travis/build/npmdoc/node-npmdoc-mssql/tmp/build/test-report.json to test-re\</tspan>
<tspan x="10" y="218">port</tspan>
<tspan x="10" y="234">&gt; server listening on http-port 44525</tspan>
<tspan x="10" y="250">Config file not found.</tspan>
<tspan x="10" y="266">Failed to load config file. ENOENT: no such file or directory, open '/home/travis/build/npmdoc/n\</tspan>
<tspan x="10" y="282">ode-npmdoc-mssql/.mssql.json'</tspan>
<tspan x="10" y="298">Failed to parse config file. Unexpected token u in JSON at position 0</tspan>
<tspan x="10" y="314">{ Error: Cannot find module 'tds/package.json'</tspan>
<tspan x="10" y="330">    at Function.Module._resolveFilename (module.js:470:15)</tspan>
<tspan x="10" y="346">    at Function.Module._load (module.js:418:25)</tspan>
<tspan x="10" y="362">    at Module.require (module.js:498:17)</tspan>
<tspan x="10" y="378">    at require (internal/module.js:20:19)</tspan>
<tspan x="10" y="394">    at Object.&lt;anonymous&gt; (/home/travis/build/npmdoc/node-npmdoc-mssql/node_modules/mssql/lib/td\</tspan>
<tspan x="10" y="410">s-fix.js:6:9)</tspan>
<tspan x="10" y="426">    at Object.&lt;anonymous&gt; (/home/travis/build/npmdoc/node-npmdoc-mssql/node_modules/mssql/lib/td\</tspan>
<tspan x="10" y="442">s-fix.js:35:4)</tspan>
<tspan x="10" y="458">    at Module._compile (module.js:571:32)</tspan>
<tspan x="10" y="474">    at Object.Module._extensions..js [as _moduleExtensionsJs] (module.js:580:10)</tspan>
<tspan x="10" y="490">    at Object.local.module._extensions..js (/home/travis/build/npmdoc/node-npmdoc-mssql/node_mod\</tspan>
<tspan x="10" y="506">ules/utility2/lib.istanbul.js:2478:27)</tspan>
<tspan x="10" y="522">    at Module.load (module.js:488:32) code: 'MODULE_NOT_FOUND' }</tspan>
<tspan x="10" y="538">created apidoc file:///home/travis/build/npmdoc/node-npmdoc-mssql/tmp/build/apidoc.html</tspan>
<tspan x="10" y="554"></tspan>
<tspan x="10" y="570"></tspan>
<tspan x="10" y="586">browserTest - created electron entry-page /home/travis/build/npmdoc/node-npmdoc-mssql/tmp/electr\</tspan>
<tspan x="10" y="602">on.15af18c75200.9796cd5177dec.html</tspan>
<tspan x="10" y="618"></tspan>
<tspan x="10" y="634">Xlib:  extension "RANDR" missing on display ":99.0".</tspan>
<tspan x="10" y="650">merging file:///home/travis/build/npmdoc/node-npmdoc-mssql/tmp/build/test-report.json to test-re\</tspan>
<tspan x="10" y="666">port</tspan>
<tspan x="10" y="682">Xlib:  extension "RANDR" missing on display ":99.0".</tspan>
<tspan x="10" y="698">[5026:0321/154639:WARNING:audio_manager.cc(314)] Multiple instances of AudioManager detected</tspan>
<tspan x="10" y="714">[5026:0321/154639:WARNING:audio_manager.cc(275)] Multiple instances of AudioManager detected</tspan>
<tspan x="10" y="730">[5046:0321/154639:ERROR:sandbox_linux.cc(343)] InitializeSandbox() called with multiple threads \</tspan>
<tspan x="10" y="746">in process gpu-process. </tspan>
<tspan x="10" y="762">[5026:0321/154639:ERROR:browser_gpu_channel_host_factory.cc(131)] Failed to create channel.</tspan>
<tspan x="10" y="778"></tspan>
<tspan x="10" y="794">browserTest - opened url file:///home/travis/build/npmdoc/node-npmdoc-mssql/tmp/build/apidoc.htm\</tspan>
<tspan x="10" y="810">l</tspan>
<tspan x="10" y="826"></tspan>
<tspan x="10" y="842">[node test-case 1 of 6 passed] - testCase_buildLib_default</tspan>
<tspan x="10" y="858">[node test-case 2 of 6 passed] - testCase_buildReadme_default</tspan>
<tspan x="10" y="874">[node test-case 3 of 6 passed] - testCase_buildTest_default</tspan>
<tspan x="10" y="890"></tspan>
<tspan x="10" y="906">browserTest - created electron entry-page /home/travis/build/npmdoc/node-npmdoc-mssql/tmp/electr\</tspan>
<tspan x="10" y="922">on.15af18c7a880.b91c4ada237f3.html</tspan>
<tspan x="10" y="938"></tspan>
<tspan x="10" y="954">(node:5012) DeprecationWarning: node --debug is deprecated. Please use node --inspect instead.</tspan>
<tspan x="10" y="970">Xlib:  extension "RANDR" missing on display ":99.0".</tspan>
<tspan x="10" y="986">&gt; server listening on http-port 47575</tspan>
<tspan x="10" y="1002">merging file:///home/travis/build/npmdoc/node-npmdoc-mssql/tmp/build/test-report.json to test-re\</tspan>
<tspan x="10" y="1018">port</tspan>
<tspan x="10" y="1034">Xlib:  extension "RANDR" missing on display ":99.0".</tspan>
<tspan x="10" y="1050">[5092:0321/154640:WARNING:audio_manager.cc(314)] Multiple instances of AudioManager detected</tspan>
<tspan x="10" y="1066">[5092:0321/154640:WARNING:audio_manager.cc(275)] Multiple instances of AudioManager detected</tspan>
<tspan x="10" y="1082">[5117:0321/154640:ERROR:sandbox_linux.cc(343)] InitializeSandbox() called with multiple threads \</tspan>
<tspan x="10" y="1098">in process gpu-process. </tspan>
<tspan x="10" y="1114">[5092:0321/154640:ERROR:browser_gpu_channel_host_factory.cc(131)] Failed to create channel.</tspan>
<tspan x="10" y="1130"></tspan>
<tspan x="10" y="1146">browserTest - opened url http://127.0.0.1:44525?modeTest=1</tspan>
<tspan x="10" y="1162"></tspan>
<tspan x="10" y="1178">[5092:0321/154642:INFO:CONSOLE(203)] "----------|-----------|-----------|-----------|-----------\</tspan>
<tspan x="10" y="1194">|</tspan>
<tspan x="10" y="1210">File      |   % Stmts |% Branches |   % Funcs |   % Lines |</tspan>
<tspan x="10" y="1226">----------|-----------|-----------|-----------|-----------|</tspan>
<tspan x="10" y="1242">----------|-----------|-----------|-----------|-----------|</tspan>
<tspan x="10" y="1258">All files |       100 |       100 |       100 |       100 |</tspan>
<tspan x="10" y="1274">----------|-----------|-----------|-----------|-----------|</tspan>
<tspan x="10" y="1290">", source: file:///home/travis/build/npmdoc/node-npmdoc-mssql/tmp/electron.15af18c7a880.b91c4ada\</tspan>
<tspan x="10" y="1306">237f3.html (203)</tspan>
<tspan x="10" y="1322">[5092:0321/154642:INFO:CONSOLE(203)] "created coverage file:///tmp/build/coverage.html/index.htm\</tspan>
<tspan x="10" y="1338">l", source: file:///home/travis/build/npmdoc/node-npmdoc-mssql/tmp/electron.15af18c7a880.b91c4ad\</tspan>
<tspan x="10" y="1354">a237f3.html (203)</tspan>
<tspan x="10" y="1370"></tspan>
<tspan x="10" y="1386">browserTest - created screen-capture file:///home/travis/build/npmdoc/node-npmdoc-mssql/tmp/buil\</tspan>
<tspan x="10" y="1402">d/screen-capture.npmTest.browser._2Fhome_2Ftravis_2Fbuild_2Fnpmdoc_2Fnode-npmdoc-mssql_2Ftmp_2Fb\</tspan>
<tspan x="10" y="1418">uild_2Fapidoc.html.png</tspan>
<tspan x="10" y="1434"></tspan>
<tspan x="10" y="1450"></tspan>
<tspan x="10" y="1466">browserTest - exit-code 0 - file:///home/travis/build/npmdoc/node-npmdoc-mssql/tmp/build/apidoc.\</tspan>
<tspan x="10" y="1482">html</tspan>
<tspan x="10" y="1498"></tspan>
<tspan x="10" y="1514">[node test-case 4 of 6 passed] - testCase_buildApidoc_default</tspan>
<tspan x="10" y="1530">[node test-case 5 of 6 passed] - testCase_buildApp_default</tspan>
<tspan x="10" y="1546"></tspan>
<tspan x="10" y="1562">browserTest - created screen-capture file:///home/travis/build/npmdoc/node-npmdoc-mssql/tmp/buil\</tspan>
<tspan x="10" y="1578">d/screen-capture.npmTest.browser..png</tspan>
<tspan x="10" y="1594"></tspan>
<tspan x="10" y="1610"></tspan>
<tspan x="10" y="1626">browserTest - exit-code 0 - http://127.0.0.1:44525?modeTest=1</tspan>
<tspan x="10" y="1642"></tspan>
<tspan x="10" y="1658"></tspan>
<tspan x="10" y="1674">browserTest - merged coverage from /home/travis/build/npmdoc/node-npmdoc-mssql/tmp/coverage.npmT\</tspan>
<tspan x="10" y="1690">est.browser.%2F.json</tspan>
<tspan x="10" y="1706"></tspan>
<tspan x="10" y="1722"></tspan>
<tspan x="10" y="1738">browserTest - merging test-report from /home/travis/build/npmdoc/node-npmdoc-mssql/tmp/test-repo\</tspan>
<tspan x="10" y="1754">rt.npmTest.browser.%2F.json</tspan>
<tspan x="10" y="1770"></tspan>
<tspan x="10" y="1786">[node test-case 6 of 6 passed] - testCase_webpage_default</tspan>
<tspan x="10" y="1802">--------------------------|-----------|-----------|-----------|-----------|</tspan>
<tspan x="10" y="1818">File                      |   % Stmts |% Branches |   % Funcs |   % Lines |</tspan>
<tspan x="10" y="1834">--------------------------|-----------|-----------|-----------|-----------|</tspan>
<tspan x="10" y="1850">   node-npmdoc-mssql/     |       100 |       100 |       100 |       100 |</tspan>
<tspan x="10" y="1866">      example.js          |       100 |       100 |       100 |       100 |</tspan>
<tspan x="10" y="1882">      lib.npmdoc_mssql.js |       100 |       100 |       100 |       100 |</tspan>
<tspan x="10" y="1898">      test.js             |       100 |       100 |       100 |       100 |</tspan>
<tspan x="10" y="1914">--------------------------|-----------|-----------|-----------|-----------|</tspan>
<tspan x="10" y="1930">All files                 |       100 |       100 |       100 |       100 |</tspan>
<tspan x="10" y="1946">--------------------------|-----------|-----------|-----------|-----------|</tspan>
<tspan x="10" y="1962"></tspan>
<tspan x="10" y="1978">created coverage file:///home/travis/build/npmdoc/node-npmdoc-mssql/tmp/build/coverage.html/inde\</tspan>
<tspan x="10" y="1994">x.html</tspan>
<tspan x="10" y="2010">merging file:///home/travis/build/npmdoc/node-npmdoc-mssql/tmp/build/test-report.json to test-re\</tspan>
<tspan x="10" y="2026">port</tspan>
<tspan x="10" y="2042"></tspan>
<tspan x="10" y="2058">-------------------------------------------------------</tspan>
<tspan x="10" y="2074">| test-report - buildNpmdoc - node - linux v7.7.3 - 2017-03-21T15:46:06.406Z</tspan>
<tspan x="10" y="2090">|   38447 ms            0 failed        6 passed      |</tspan>
<tspan x="10" y="2106">-------------------------------------------------------</tspan>
<tspan x="10" y="2122"></tspan>
<tspan x="10" y="2138">created test-report file:///home/travis/build/npmdoc/node-npmdoc-mssql/tmp/build/test-report.htm\</tspan>
<tspan x="10" y="2154">l</tspan>
<tspan x="10" y="2170"></tspan>
<tspan x="10" y="2186"></tspan>
<tspan x="10" y="2202">npmTest - 0 failed tests</tspan>
<tspan x="10" y="2218"></tspan>
<tspan x="10" y="2234"></tspan>
<tspan x="10" y="2250">[MODE_BUILD=npmTest] - 2017-03-21T15:46:47Z - EXIT_CODE - 0</tspan>
</text>
</svg>
