<svg height="2526" width="720" xmlns="http://www.w3.org/2000/svg">
<rect height="2526" fill="#555" width="720"></rect>
<text fill="#7f7" font-family="Courier New" font-size="12" xml:space="preserve">
<tspan x="10" y="26"></tspan>
<tspan x="10" y="42">&gt; npmdoc-mssql@0.0.1 test /home/travis/build/npmdoc/node-npmdoc-mssql</tspan>
<tspan x="10" y="58">&gt; (set -e; export PORT=$(utility2 shServerPortRandom); utility2 test test.js)</tspan>
<tspan x="10" y="74"></tspan>
<tspan x="10" y="90"></tspan>
<tspan x="10" y="106">[MODE_BUILD=npmTest] - 2017-03-25T11:59:32Z - npm-testing /home/travis/build/npmdoc/node-npmdoc-\</tspan>
<tspan x="10" y="122">mssql</tspan>
<tspan x="10" y="138"></tspan>
<tspan x="10" y="154"></tspan>
<tspan x="10" y="170">covering $ /home/travis/.nvm/versions/node/v6.10.1/bin/node /home/travis/build/npmdoc/node-npmdo\</tspan>
<tspan x="10" y="186">c-mssql/test.js</tspan>
<tspan x="10" y="202">merging file:///home/travis/build/npmdoc/node-npmdoc-mssql/tmp/build/test-report.json to test-re\</tspan>
<tspan x="10" y="218">port</tspan>
<tspan x="10" y="234">&gt; server listening on http-port 43347</tspan>
<tspan x="10" y="250">Config file not found.</tspan>
<tspan x="10" y="266">Failed to load config file. ENOENT: no such file or directory, open '/home/travis/build/npmdoc/n\</tspan>
<tspan x="10" y="282">ode-npmdoc-mssql/.mssql.json'</tspan>
<tspan x="10" y="298">Failed to parse config file. Unexpected token u in JSON at position 0</tspan>
<tspan x="10" y="314">{ Error: Cannot find module 'tds/package.json'</tspan>
<tspan x="10" y="330">    at Function.Module._resolveFilename (module.js:469:15)</tspan>
<tspan x="10" y="346">    at Function.Module._load (module.js:417:25)</tspan>
<tspan x="10" y="362">    at Module.require (module.js:497:17)</tspan>
<tspan x="10" y="378">    at require (internal/module.js:20:19)</tspan>
<tspan x="10" y="394">    at Object.&lt;anonymous&gt; (/home/travis/build/npmdoc/node-npmdoc-mssql/node_modules/mssql/lib/td\</tspan>
<tspan x="10" y="410">s-fix.js:6:9)</tspan>
<tspan x="10" y="426">    at Object.&lt;anonymous&gt; (/home/travis/build/npmdoc/node-npmdoc-mssql/node_modules/mssql/lib/td\</tspan>
<tspan x="10" y="442">s-fix.js:35:4)</tspan>
<tspan x="10" y="458">    at Module._compile (module.js:570:32)</tspan>
<tspan x="10" y="474">    at Object.Module._extensions..js [as _moduleExtensionsJs] (module.js:579:10)</tspan>
<tspan x="10" y="490">    at Object.local.module._extensions..js (/home/travis/build/npmdoc/node-npmdoc-mssql/node_mod\</tspan>
<tspan x="10" y="506">ules/utility2/lib.istanbul.js:2478:27)</tspan>
<tspan x="10" y="522">    at Module.load (module.js:487:32) code: 'MODULE_NOT_FOUND' }</tspan>
<tspan x="10" y="538">created apidoc file:///home/travis/build/npmdoc/node-npmdoc-mssql/tmp/build/apidoc.html</tspan>
<tspan x="10" y="554"></tspan>
<tspan x="10" y="570"></tspan>
<tspan x="10" y="586">browserTest - created electron entry-page /home/travis/build/npmdoc/node-npmdoc-mssql/tmp/electr\</tspan>
<tspan x="10" y="602">on.15b0555ffac0.2b19726898075.html</tspan>
<tspan x="10" y="618"></tspan>
<tspan x="10" y="634">Xlib:  extension "RANDR" missing on display ":99.0".</tspan>
<tspan x="10" y="650"></tspan>
<tspan x="10" y="666">/home/travis/build/npmdoc/node-npmdoc-mssql/node_modules/utility2/lib.utility2.sh.html.js</tspan>
<tspan x="10" y="682"> #1 Line too long.</tspan>
<tspan x="10" y="698">    process.stdout.write('export npm_package_' + key.replace((/\W/g), '_') + '=' + JSON.stringif\</tspan>
<tspan x="10" y="714">y(value) + ';'); // Line 1445, Pos 116</tspan>
<tspan x="10" y="730"></tspan>
<tspan x="10" y="746">merging file:///home/travis/build/npmdoc/node-npmdoc-mssql/tmp/build/test-report.json to test-re\</tspan>
<tspan x="10" y="762">port</tspan>
<tspan x="10" y="778">Xlib:  extension "RANDR" missing on display ":99.0".</tspan>
<tspan x="10" y="794">[4881:0325/115934:WARNING:audio_manager.cc(314)] Multiple instances of AudioManager detected</tspan>
<tspan x="10" y="810">[4881:0325/115934:WARNING:audio_manager.cc(275)] Multiple instances of AudioManager detected</tspan>
<tspan x="10" y="826">[4900:0325/115934:ERROR:sandbox_linux.cc(343)] InitializeSandbox() called with multiple threads \</tspan>
<tspan x="10" y="842">in process gpu-process. </tspan>
<tspan x="10" y="858"></tspan>
<tspan x="10" y="874">browserTest - opened url file:///home/travis/build/npmdoc/node-npmdoc-mssql/tmp/build/apidoc.htm\</tspan>
<tspan x="10" y="890">l</tspan>
<tspan x="10" y="906"></tspan>
<tspan x="10" y="922">[node test-case 1 of 6 passed] - testCase_buildLib_default</tspan>
<tspan x="10" y="938">[node test-case 2 of 6 passed] - testCase_buildReadme_default</tspan>
<tspan x="10" y="954">[node test-case 3 of 6 passed] - testCase_buildTest_default</tspan>
<tspan x="10" y="970"></tspan>
<tspan x="10" y="986">browserTest - created electron entry-page /home/travis/build/npmdoc/node-npmdoc-mssql/tmp/electr\</tspan>
<tspan x="10" y="1002">on.15b055605580.328f7d6c74836.html</tspan>
<tspan x="10" y="1018"></tspan>
<tspan x="10" y="1034">Xlib:  extension "RANDR" missing on display ":99.0".</tspan>
<tspan x="10" y="1050">&gt; server listening on http-port 46274</tspan>
<tspan x="10" y="1066"></tspan>
<tspan x="10" y="1082">/home/travis/build/npmdoc/node-npmdoc-mssql/node_modules/utility2/lib.utility2.sh.html.js</tspan>
<tspan x="10" y="1098"> #1 Line too long.</tspan>
<tspan x="10" y="1114">    process.stdout.write('export npm_package_' + key.replace((/\W/g), '_') + '=' + JSON.stringif\</tspan>
<tspan x="10" y="1130">y(value) + ';'); // Line 1445, Pos 116</tspan>
<tspan x="10" y="1146"></tspan>
<tspan x="10" y="1162">merging file:///home/travis/build/npmdoc/node-npmdoc-mssql/tmp/build/test-report.json to test-re\</tspan>
<tspan x="10" y="1178">port</tspan>
<tspan x="10" y="1194">Xlib:  extension "RANDR" missing on display ":99.0".</tspan>
<tspan x="10" y="1210">[4950:0325/115936:WARNING:audio_manager.cc(314)] Multiple instances of AudioManager detected</tspan>
<tspan x="10" y="1226">[4950:0325/115936:WARNING:audio_manager.cc(275)] Multiple instances of AudioManager detected</tspan>
<tspan x="10" y="1242">[4975:0325/115936:ERROR:sandbox_linux.cc(343)] InitializeSandbox() called with multiple threads \</tspan>
<tspan x="10" y="1258">in process gpu-process. </tspan>
<tspan x="10" y="1274">[4950:0325/115936:ERROR:browser_gpu_channel_host_factory.cc(131)] Failed to create channel.</tspan>
<tspan x="10" y="1290"></tspan>
<tspan x="10" y="1306">browserTest - opened url http://127.0.0.1:43347?modeTest=1</tspan>
<tspan x="10" y="1322"></tspan>
<tspan x="10" y="1338">[4950:0325/115937:INFO:CONSOLE(203)] "----------|-----------|-----------|-----------|-----------\</tspan>
<tspan x="10" y="1354">|</tspan>
<tspan x="10" y="1370">File      |   % Stmts |% Branches |   % Funcs |   % Lines |</tspan>
<tspan x="10" y="1386">----------|-----------|-----------|-----------|-----------|</tspan>
<tspan x="10" y="1402">----------|-----------|-----------|-----------|-----------|</tspan>
<tspan x="10" y="1418">All files |       100 |       100 |       100 |       100 |</tspan>
<tspan x="10" y="1434">----------|-----------|-----------|-----------|-----------|</tspan>
<tspan x="10" y="1450">", source: file:///home/travis/build/npmdoc/node-npmdoc-mssql/tmp/electron.15b055605580.328f7d6c\</tspan>
<tspan x="10" y="1466">74836.html (203)</tspan>
<tspan x="10" y="1482">[4950:0325/115937:INFO:CONSOLE(203)] "created coverage file:///tmp/build/coverage.html/index.htm\</tspan>
<tspan x="10" y="1498">l", source: file:///home/travis/build/npmdoc/node-npmdoc-mssql/tmp/electron.15b055605580.328f7d6\</tspan>
<tspan x="10" y="1514">c74836.html (203)</tspan>
<tspan x="10" y="1530"></tspan>
<tspan x="10" y="1546">browserTest - created screen-capture file:///home/travis/build/npmdoc/node-npmdoc-mssql/tmp/buil\</tspan>
<tspan x="10" y="1562">d/screen-capture.npmTest.browser._2Fhome_2Ftravis_2Fbuild_2Fnpmdoc_2Fnode-npmdoc-mssql_2Ftmp_2Fb\</tspan>
<tspan x="10" y="1578">uild_2Fapidoc.html.png</tspan>
<tspan x="10" y="1594"></tspan>
<tspan x="10" y="1610"></tspan>
<tspan x="10" y="1626">browserTest - exit-code 0 - file:///home/travis/build/npmdoc/node-npmdoc-mssql/tmp/build/apidoc.\</tspan>
<tspan x="10" y="1642">html</tspan>
<tspan x="10" y="1658"></tspan>
<tspan x="10" y="1674">[node test-case 4 of 6 passed] - testCase_buildApidoc_default</tspan>
<tspan x="10" y="1690">[node test-case 5 of 6 passed] - testCase_buildApp_default</tspan>
<tspan x="10" y="1706"></tspan>
<tspan x="10" y="1722">browserTest - created screen-capture file:///home/travis/build/npmdoc/node-npmdoc-mssql/tmp/buil\</tspan>
<tspan x="10" y="1738">d/screen-capture.npmTest.browser..png</tspan>
<tspan x="10" y="1754"></tspan>
<tspan x="10" y="1770"></tspan>
<tspan x="10" y="1786">browserTest - exit-code 0 - http://127.0.0.1:43347?modeTest=1</tspan>
<tspan x="10" y="1802"></tspan>
<tspan x="10" y="1818"></tspan>
<tspan x="10" y="1834">browserTest - merged coverage from /home/travis/build/npmdoc/node-npmdoc-mssql/tmp/coverage.npmT\</tspan>
<tspan x="10" y="1850">est.browser.%2F.json</tspan>
<tspan x="10" y="1866"></tspan>
<tspan x="10" y="1882"></tspan>
<tspan x="10" y="1898">browserTest - merging test-report from /home/travis/build/npmdoc/node-npmdoc-mssql/tmp/test-repo\</tspan>
<tspan x="10" y="1914">rt.npmTest.browser.%2F.json</tspan>
<tspan x="10" y="1930"></tspan>
<tspan x="10" y="1946">[node test-case 6 of 6 passed] - testCase_webpage_default</tspan>
<tspan x="10" y="1962">--------------------------|-----------|-----------|-----------|-----------|</tspan>
<tspan x="10" y="1978">File                      |   % Stmts |% Branches |   % Funcs |   % Lines |</tspan>
<tspan x="10" y="1994">--------------------------|-----------|-----------|-----------|-----------|</tspan>
<tspan x="10" y="2010">   node-npmdoc-mssql/     |       100 |       100 |       100 |       100 |</tspan>
<tspan x="10" y="2026">      example.js          |       100 |       100 |       100 |       100 |</tspan>
<tspan x="10" y="2042">      lib.npmdoc_mssql.js |       100 |       100 |       100 |       100 |</tspan>
<tspan x="10" y="2058">      test.js             |       100 |       100 |       100 |       100 |</tspan>
<tspan x="10" y="2074">--------------------------|-----------|-----------|-----------|-----------|</tspan>
<tspan x="10" y="2090">All files                 |       100 |       100 |       100 |       100 |</tspan>
<tspan x="10" y="2106">--------------------------|-----------|-----------|-----------|-----------|</tspan>
<tspan x="10" y="2122"></tspan>
<tspan x="10" y="2138">created coverage file:///home/travis/build/npmdoc/node-npmdoc-mssql/tmp/build/coverage.html/inde\</tspan>
<tspan x="10" y="2154">x.html</tspan>
<tspan x="10" y="2170"></tspan>
<tspan x="10" y="2186">/home/travis/build/npmdoc/node-npmdoc-mssql/node_modules/utility2/lib.utility2.sh.html.js</tspan>
<tspan x="10" y="2202"> #1 Line too long.</tspan>
<tspan x="10" y="2218">    process.stdout.write('export npm_package_' + key.replace((/\W/g), '_') + '=' + JSON.stringif\</tspan>
<tspan x="10" y="2234">y(value) + ';'); // Line 1445, Pos 116</tspan>
<tspan x="10" y="2250"></tspan>
<tspan x="10" y="2266">merging file:///home/travis/build/npmdoc/node-npmdoc-mssql/tmp/build/test-report.json to test-re\</tspan>
<tspan x="10" y="2282">port</tspan>
<tspan x="10" y="2298"></tspan>
<tspan x="10" y="2314">-------------------------------------------------------</tspan>
<tspan x="10" y="2330">| test-report - buildNpmdoc - node - linux v6.10.1 - 2017-03-25T11:59:20.962Z</tspan>
<tspan x="10" y="2346">|   19207 ms            0 failed        6 passed      |</tspan>
<tspan x="10" y="2362">-------------------------------------------------------</tspan>
<tspan x="10" y="2378"></tspan>
<tspan x="10" y="2394">created test-report file:///home/travis/build/npmdoc/node-npmdoc-mssql/tmp/build/test-report.htm\</tspan>
<tspan x="10" y="2410">l</tspan>
<tspan x="10" y="2426"></tspan>
<tspan x="10" y="2442"></tspan>
<tspan x="10" y="2458">npmTest - 0 failed tests</tspan>
<tspan x="10" y="2474"></tspan>
<tspan x="10" y="2490"></tspan>
<tspan x="10" y="2506">[MODE_BUILD=npmTest] - 2017-03-25T11:59:43Z - EXIT_CODE - 0</tspan>
</text>
</svg>
