<svg height="2238" width="720" xmlns="http://www.w3.org/2000/svg">
<rect height="2238" fill="#555" width="720"></rect>
<text fill="#7f7" font-family="Courier New" font-size="12" xml:space="preserve">
<tspan x="10" y="26"></tspan>
<tspan x="10" y="42">&gt; npmdoc-mssql@0.0.2 test /home/travis/build/npmdoc/node-npmdoc-mssql</tspan>
<tspan x="10" y="58">&gt; (set -e; export PORT=$(utility2 shServerPortRandom); utility2 test test.js)</tspan>
<tspan x="10" y="74"></tspan>
<tspan x="10" y="90"></tspan>
<tspan x="10" y="106">[MODE_BUILD=npmTest] - 2017-03-25T17:28:37Z - npm-testing /home/travis/build/npmdoc/node-npmdoc-\</tspan>
<tspan x="10" y="122">mssql</tspan>
<tspan x="10" y="138"></tspan>
<tspan x="10" y="154"></tspan>
<tspan x="10" y="170">covering $ /home/travis/.nvm/versions/node/v6.10.1/bin/node /home/travis/build/npmdoc/node-npmdo\</tspan>
<tspan x="10" y="186">c-mssql/test.js</tspan>
<tspan x="10" y="202">merging file:///home/travis/build/npmdoc/node-npmdoc-mssql/tmp/build/test-report.json to test-re\</tspan>
<tspan x="10" y="218">port</tspan>
<tspan x="10" y="234">&gt; server listening on http-port 36232</tspan>
<tspan x="10" y="250">Config file not found.</tspan>
<tspan x="10" y="266">Failed to load config file. ENOENT: no such file or directory, open '/home/travis/build/npmdoc/n\</tspan>
<tspan x="10" y="282">ode-npmdoc-mssql/.mssql.json'</tspan>
<tspan x="10" y="298">Failed to parse config file. Unexpected token u in JSON at position 0</tspan>
<tspan x="10" y="314">{ Error: Cannot find module 'tds/package.json'</tspan>
<tspan x="10" y="330">    at Function.Module._resolveFilename (module.js:469:15)</tspan>
<tspan x="10" y="346">    at Function.Module._load (module.js:417:25)</tspan>
<tspan x="10" y="362">    at Module.require (module.js:497:17)</tspan>
<tspan x="10" y="378">    at require (internal/module.js:20:19)</tspan>
<tspan x="10" y="394">    at Object.&lt;anonymous&gt; (/home/travis/build/npmdoc/node-npmdoc-mssql/node_modules/mssql/lib/td\</tspan>
<tspan x="10" y="410">s-fix.js:6:9)</tspan>
<tspan x="10" y="426">    at Object.&lt;anonymous&gt; (/home/travis/build/npmdoc/node-npmdoc-mssql/node_modules/mssql/lib/td\</tspan>
<tspan x="10" y="442">s-fix.js:35:4)</tspan>
<tspan x="10" y="458">    at Module._compile (module.js:570:32)</tspan>
<tspan x="10" y="474">    at Object.Module._extensions..js [as _moduleExtensionsJs] (module.js:579:10)</tspan>
<tspan x="10" y="490">    at Object.local.module._extensions..js (/home/travis/build/npmdoc/node-npmdoc-mssql/node_mod\</tspan>
<tspan x="10" y="506">ules/utility2/lib.istanbul.js:2478:27)</tspan>
<tspan x="10" y="522">    at Module.load (module.js:487:32) code: 'MODULE_NOT_FOUND' }</tspan>
<tspan x="10" y="538">created apidoc file:///home/travis/build/npmdoc/node-npmdoc-mssql/tmp/build/apidoc.html</tspan>
<tspan x="10" y="554"></tspan>
<tspan x="10" y="570"></tspan>
<tspan x="10" y="586">browserTest - created electron entry-page /home/travis/build/npmdoc/node-npmdoc-mssql/tmp/electr\</tspan>
<tspan x="10" y="602">on.15b068348790.d541304d3be3c.html</tspan>
<tspan x="10" y="618"></tspan>
<tspan x="10" y="634">Xlib:  extension "RANDR" missing on display ":99.0".</tspan>
<tspan x="10" y="650">merging file:///home/travis/build/npmdoc/node-npmdoc-mssql/tmp/build/test-report.json to test-re\</tspan>
<tspan x="10" y="666">port</tspan>
<tspan x="10" y="682">Xlib:  extension "RANDR" missing on display ":99.0".</tspan>
<tspan x="10" y="698">[4689:0325/172839:WARNING:audio_manager.cc(314)] Multiple instances of AudioManager detected</tspan>
<tspan x="10" y="714">[4689:0325/172839:WARNING:audio_manager.cc(275)] Multiple instances of AudioManager detected</tspan>
<tspan x="10" y="730">[4706:0325/172839:ERROR:sandbox_linux.cc(343)] InitializeSandbox() called with multiple threads \</tspan>
<tspan x="10" y="746">in process gpu-process. </tspan>
<tspan x="10" y="762"></tspan>
<tspan x="10" y="778">browserTest - opened url file:///home/travis/build/npmdoc/node-npmdoc-mssql/tmp/build/apidoc.htm\</tspan>
<tspan x="10" y="794">l</tspan>
<tspan x="10" y="810"></tspan>
<tspan x="10" y="826">[node test-case 1 of 6 passed] - testCase_buildLib_default</tspan>
<tspan x="10" y="842">[node test-case 2 of 6 passed] - testCase_buildReadme_default</tspan>
<tspan x="10" y="858">[node test-case 3 of 6 passed] - testCase_buildTest_default</tspan>
<tspan x="10" y="874"></tspan>
<tspan x="10" y="890">browserTest - created electron entry-page /home/travis/build/npmdoc/node-npmdoc-mssql/tmp/electr\</tspan>
<tspan x="10" y="906">on.15b06834e650.39752c844ef3b.html</tspan>
<tspan x="10" y="922"></tspan>
<tspan x="10" y="938">Xlib:  extension "RANDR" missing on display ":99.0".</tspan>
<tspan x="10" y="954">&gt; server listening on http-port 53332</tspan>
<tspan x="10" y="970">merging file:///home/travis/build/npmdoc/node-npmdoc-mssql/tmp/build/test-report.json to test-re\</tspan>
<tspan x="10" y="986">port</tspan>
<tspan x="10" y="1002">Xlib:  extension "RANDR" missing on display ":99.0".</tspan>
<tspan x="10" y="1018">[4755:0325/172841:WARNING:audio_manager.cc(314)] Multiple instances of AudioManager detected</tspan>
<tspan x="10" y="1034">[4755:0325/172841:WARNING:audio_manager.cc(275)] Multiple instances of AudioManager detected</tspan>
<tspan x="10" y="1050">[4777:0325/172841:ERROR:sandbox_linux.cc(343)] InitializeSandbox() called with multiple threads \</tspan>
<tspan x="10" y="1066">in process gpu-process. </tspan>
<tspan x="10" y="1082">[4755:0325/172841:ERROR:browser_gpu_channel_host_factory.cc(131)] Failed to create channel.</tspan>
<tspan x="10" y="1098"></tspan>
<tspan x="10" y="1114">browserTest - opened url http://127.0.0.1:36232?modeTest=1</tspan>
<tspan x="10" y="1130"></tspan>
<tspan x="10" y="1146">[4755:0325/172843:INFO:CONSOLE(203)] "----------|-----------|-----------|-----------|-----------\</tspan>
<tspan x="10" y="1162">|</tspan>
<tspan x="10" y="1178">File      |   % Stmts |% Branches |   % Funcs |   % Lines |</tspan>
<tspan x="10" y="1194">----------|-----------|-----------|-----------|-----------|</tspan>
<tspan x="10" y="1210">----------|-----------|-----------|-----------|-----------|</tspan>
<tspan x="10" y="1226">All files |       100 |       100 |       100 |       100 |</tspan>
<tspan x="10" y="1242">----------|-----------|-----------|-----------|-----------|</tspan>
<tspan x="10" y="1258">", source: file:///home/travis/build/npmdoc/node-npmdoc-mssql/tmp/electron.15b06834e650.39752c84\</tspan>
<tspan x="10" y="1274">4ef3b.html (203)</tspan>
<tspan x="10" y="1290">[4755:0325/172843:INFO:CONSOLE(203)] "created coverage file:///tmp/build/coverage.html/index.htm\</tspan>
<tspan x="10" y="1306">l", source: file:///home/travis/build/npmdoc/node-npmdoc-mssql/tmp/electron.15b06834e650.39752c8\</tspan>
<tspan x="10" y="1322">44ef3b.html (203)</tspan>
<tspan x="10" y="1338"></tspan>
<tspan x="10" y="1354">browserTest - created screen-capture file:///home/travis/build/npmdoc/node-npmdoc-mssql/tmp/buil\</tspan>
<tspan x="10" y="1370">d/screen-capture.npmTest.browser._2Fhome_2Ftravis_2Fbuild_2Fnpmdoc_2Fnode-npmdoc-mssql_2Ftmp_2Fb\</tspan>
<tspan x="10" y="1386">uild_2Fapidoc.html.png</tspan>
<tspan x="10" y="1402"></tspan>
<tspan x="10" y="1418"></tspan>
<tspan x="10" y="1434">browserTest - exit-code 0 - file:///home/travis/build/npmdoc/node-npmdoc-mssql/tmp/build/apidoc.\</tspan>
<tspan x="10" y="1450">html</tspan>
<tspan x="10" y="1466"></tspan>
<tspan x="10" y="1482">[node test-case 4 of 6 passed] - testCase_buildApidoc_default</tspan>
<tspan x="10" y="1498">[node test-case 5 of 6 passed] - testCase_buildApp_default</tspan>
<tspan x="10" y="1514"></tspan>
<tspan x="10" y="1530">browserTest - created screen-capture file:///home/travis/build/npmdoc/node-npmdoc-mssql/tmp/buil\</tspan>
<tspan x="10" y="1546">d/screen-capture.npmTest.browser..png</tspan>
<tspan x="10" y="1562"></tspan>
<tspan x="10" y="1578"></tspan>
<tspan x="10" y="1594">browserTest - exit-code 0 - http://127.0.0.1:36232?modeTest=1</tspan>
<tspan x="10" y="1610"></tspan>
<tspan x="10" y="1626"></tspan>
<tspan x="10" y="1642">browserTest - merged coverage from /home/travis/build/npmdoc/node-npmdoc-mssql/tmp/coverage.npmT\</tspan>
<tspan x="10" y="1658">est.browser.%2F.json</tspan>
<tspan x="10" y="1674"></tspan>
<tspan x="10" y="1690"></tspan>
<tspan x="10" y="1706">browserTest - merging test-report from /home/travis/build/npmdoc/node-npmdoc-mssql/tmp/test-repo\</tspan>
<tspan x="10" y="1722">rt.npmTest.browser.%2F.json</tspan>
<tspan x="10" y="1738"></tspan>
<tspan x="10" y="1754">[node test-case 6 of 6 passed] - testCase_webpage_default</tspan>
<tspan x="10" y="1770">--------------------------|-----------|-----------|-----------|-----------|</tspan>
<tspan x="10" y="1786">File                      |   % Stmts |% Branches |   % Funcs |   % Lines |</tspan>
<tspan x="10" y="1802">--------------------------|-----------|-----------|-----------|-----------|</tspan>
<tspan x="10" y="1818">   node-npmdoc-mssql/     |       100 |       100 |       100 |       100 |</tspan>
<tspan x="10" y="1834">      example.js          |       100 |       100 |       100 |       100 |</tspan>
<tspan x="10" y="1850">      lib.npmdoc_mssql.js |       100 |       100 |       100 |       100 |</tspan>
<tspan x="10" y="1866">      test.js             |       100 |       100 |       100 |       100 |</tspan>
<tspan x="10" y="1882">--------------------------|-----------|-----------|-----------|-----------|</tspan>
<tspan x="10" y="1898">All files                 |       100 |       100 |       100 |       100 |</tspan>
<tspan x="10" y="1914">--------------------------|-----------|-----------|-----------|-----------|</tspan>
<tspan x="10" y="1930"></tspan>
<tspan x="10" y="1946">created coverage file:///home/travis/build/npmdoc/node-npmdoc-mssql/tmp/build/coverage.html/inde\</tspan>
<tspan x="10" y="1962">x.html</tspan>
<tspan x="10" y="1978">merging file:///home/travis/build/npmdoc/node-npmdoc-mssql/tmp/build/test-report.json to test-re\</tspan>
<tspan x="10" y="1994">port</tspan>
<tspan x="10" y="2010"></tspan>
<tspan x="10" y="2026">-------------------------------------------------------</tspan>
<tspan x="10" y="2042">| test-report - buildNpmdoc - node - linux v6.10.1 - 2017-03-25T17:28:26.158Z</tspan>
<tspan x="10" y="2058">|   19329 ms            0 failed        6 passed      |</tspan>
<tspan x="10" y="2074">-------------------------------------------------------</tspan>
<tspan x="10" y="2090"></tspan>
<tspan x="10" y="2106">created test-report file:///home/travis/build/npmdoc/node-npmdoc-mssql/tmp/build/test-report.htm\</tspan>
<tspan x="10" y="2122">l</tspan>
<tspan x="10" y="2138"></tspan>
<tspan x="10" y="2154"></tspan>
<tspan x="10" y="2170">npmTest - 0 failed tests</tspan>
<tspan x="10" y="2186"></tspan>
<tspan x="10" y="2202"></tspan>
<tspan x="10" y="2218">[MODE_BUILD=npmTest] - 2017-03-25T17:28:48Z - EXIT_CODE - 0</tspan>
</text>
</svg>
